<svg width="192" height="192" viewBox="0 0 192 192" xmlns="http://www.w3.org/2000/svg">
  <!-- Background Circle -->
  <circle cx="96" cy="96" r="90" fill="url(#gradient1)" stroke="url(#gradient2)" stroke-width="4"/>
  
  <!-- Graph Nodes and Edges representing the logo -->
  <!-- Node positions based on the provided image pattern -->
  
  <!-- Edges (lines) -->
  <line x1="40" y1="120" x2="60" y2="100" stroke="#8B0000" stroke-width="3"/>
  <line x1="60" y1="100" x2="80" y2="90" stroke="#A0522D" stroke-width="3"/>
  <line x1="80" y1="90" x2="100" y2="110" stroke="#CD5C5C" stroke-width="3"/>
  <line x1="100" y1="110" x2="120" y2="80" stroke="#DC143C" stroke-width="3"/>
  <line x1="120" y1="80" x2="140" y2="70" stroke="#FF4500" stroke-width="3"/>
  <line x1="140" y1="70" x2="160" y2="60" stroke="#FF6347" stroke-width="3"/>
  
  <!-- Arrow edges -->
  <line x1="140" y1="70" x2="155" y2="55" stroke="#FF4500" stroke-width="3" marker-end="url(#arrowhead)"/>
  <line x1="160" y1="60" x2="175" y2="45" stroke="#FF6347" stroke-width="3" marker-end="url(#arrowhead)"/>
  
  <!-- Nodes (circles) -->
  <circle cx="40" cy="120" r="6" fill="#8B0000"/>
  <circle cx="60" cy="100" r="6" fill="#A0522D"/>
  <circle cx="80" cy="90" r="6" fill="#CD5C5C"/>
  <circle cx="100" cy="110" r="6" fill="#DC143C"/>
  <circle cx="120" cy="80" r="6" fill="#FF4500"/>
  <circle cx="140" cy="70" r="6" fill="#FF6347"/>
  <circle cx="160" cy="60" r="6" fill="#FF7F50"/>
  
  <!-- Text -->
  <text x="96" y="150" text-anchor="middle" font-family="Arial, sans-serif" font-size="16" font-weight="bold" fill="#666">
    GRAPH D ACE
  </text>
  
  <!-- Gradients -->
  <defs>
    <linearGradient id="gradient1" x1="0%" y1="0%" x2="100%" y2="100%">
      <stop offset="0%" style="stop-color:#f8f9fa;stop-opacity:1" />
      <stop offset="100%" style="stop-color:#e9ecef;stop-opacity:1" />
    </linearGradient>
    <linearGradient id="gradient2" x1="0%" y1="0%" x2="100%" y2="100%">
      <stop offset="0%" style="stop-color:#4facfe;stop-opacity:1" />
      <stop offset="100%" style="stop-color:#00f2fe;stop-opacity:1" />
    </linearGradient>
    
    <!-- Arrow marker -->
    <marker id="arrowhead" markerWidth="10" markerHeight="7" refX="10" refY="3.5" orient="auto">
      <polygon points="0 0, 10 3.5, 0 7" fill="#FF4500"/>
    </marker>
  </defs>
</svg>
